<svg width="48" height="48" viewBox="0 0 48 48" fill="none" xmlns="http://www.w3.org/2000/svg">
<g id="Icon/Doctor Consult">
<path id="Vector" d="M33.6004 40V38.5V40ZM14.4004 40V41.5V40ZM40.0004 33.6H41.5004H40.0004ZM39.5645 37.8159L40.901 38.4969L39.5645 37.8159ZM37.8156 39.564L38.4966 40.9005L37.8156 39.564ZM37.8156 8.43597L38.4966 7.09946V7.09946L37.8156 8.43597ZM40.0004 14.4H38.5004H40.0004ZM39.5645 10.1841L38.2279 10.8651L39.5645 10.1841ZM8.43597 10.1841L7.09946 9.5031L7.09946 9.5031L8.43597 10.1841ZM10.1836 8.43597L10.8646 9.77248V9.77248L10.1836 8.43597ZM8.43597 37.8159L9.77248 37.135H9.77248L8.43597 37.8159ZM10.1836 39.564L10.8646 38.2275H10.8646L10.1836 39.564ZM16 22.5C15.1716 22.5 14.5 23.1716 14.5 24C14.5 24.8284 15.1716 25.5 16 25.5V22.5ZM32 25.5C32.8284 25.5 33.5 24.8284 33.5 24C33.5 23.1716 32.8284 22.5 32 22.5V25.5ZM22.5 32C22.5 32.8284 23.1716 33.5 24 33.5C24.8284 33.5 25.5 32.8284 25.5 32H22.5ZM25.5 16C25.5 15.1716 24.8284 14.5 24 14.5C23.1716 14.5 22.5 15.1716 22.5 16H25.5ZM9.5 33.6V14.4H6.5V33.6H9.5ZM14.4004 9.5H33.6004V6.5H14.4004V9.5ZM33.6004 38.5H14.4004V41.5H33.6004V38.5ZM38.5004 33.6C38.5004 34.7448 38.4993 35.5133 38.4509 36.105C38.404 36.6793 38.3202 36.9538 38.2279 37.135L40.901 38.4969C41.2447 37.8224 41.3789 37.1091 41.4409 36.3493C41.5016 35.607 41.5004 34.6953 41.5004 33.6H38.5004ZM33.6004 41.5C34.6958 41.5 35.6073 41.5012 36.3494 41.4405C37.1091 41.3784 37.8221 41.2441 38.4966 40.9005L37.1346 38.2275C36.9534 38.3198 36.6789 38.4035 36.105 38.4505C35.5135 38.4988 34.7452 38.5 33.6004 38.5V41.5ZM38.2279 37.135C37.9886 37.6047 37.6057 37.9874 37.1346 38.2275L38.4966 40.9005C39.5308 40.3735 40.3733 39.5325 40.901 38.4969L38.2279 37.135ZM33.6004 9.5C34.7453 9.5 35.5135 9.50117 36.105 9.54951C36.6789 9.59642 36.9534 9.68016 37.1346 9.77248L38.4966 7.09946C37.8221 6.75582 37.1091 6.62157 36.3494 6.55948C35.6073 6.49883 34.6957 6.5 33.6004 6.5V9.5ZM41.5004 14.4C41.5004 13.3047 41.5016 12.393 41.4409 11.6507C41.3789 10.8909 41.2447 10.1776 40.901 9.5031L38.2279 10.8651C38.3202 11.0462 38.404 11.3208 38.4509 11.895C38.4993 12.4868 38.5004 13.2552 38.5004 14.4H41.5004ZM37.1346 9.77248C37.6056 10.0125 37.9886 10.3953 38.2279 10.8651L40.901 9.5031C40.3733 8.46759 39.5308 7.62646 38.4966 7.09946L37.1346 9.77248ZM9.5 14.4C9.5 13.2552 9.50117 12.4867 9.54952 11.895C9.59643 11.3208 9.6802 11.0462 9.77248 10.8651L7.09946 9.5031C6.75578 10.1776 6.62155 10.8909 6.55948 11.6507C6.49883 12.3929 6.5 13.3047 6.5 14.4H9.5ZM14.4004 6.5C13.305 6.5 12.3931 6.49883 11.6507 6.55948C10.8908 6.62154 10.1772 6.75573 9.50261 7.09946L10.8646 9.77248C11.0456 9.68024 11.3203 9.59645 11.8949 9.54952C12.4869 9.50117 13.2555 9.5 14.4004 9.5V6.5ZM9.77248 10.8651C10.0124 10.3943 10.3946 10.012 10.8646 9.77248L9.50261 7.09946C8.46733 7.62697 7.62657 8.46859 7.09946 9.5031L9.77248 10.8651ZM6.5 33.6C6.5 34.6954 6.49883 35.6071 6.55948 36.3493C6.62155 37.1091 6.75578 37.8224 7.09946 38.4969L9.77248 37.135C9.6802 36.9538 9.59643 36.6793 9.54951 36.105C9.50117 35.5133 9.5 34.7449 9.5 33.6H6.5ZM14.4004 38.5C13.2556 38.5 12.4869 38.4988 11.8949 38.4505C11.3204 38.4035 11.0456 38.3197 10.8646 38.2275L9.50261 40.9005C10.1772 41.2442 10.8908 41.3784 11.6506 41.4405C12.3931 41.5012 13.305 41.5 14.4004 41.5V38.5ZM7.09946 38.4969C7.6266 39.5315 8.46739 40.373 9.50261 40.9005L10.8646 38.2275C10.3945 37.9879 10.0123 37.6057 9.77248 37.135L7.09946 38.4969ZM38.5004 14.4V33.6H41.5004V14.4H38.5004ZM16 25.5H32V22.5H16V25.5ZM25.5 32V16H22.5V32H25.5Z" fill="#52525B"/>
</g>
</svg>
